Wavefont-w400r100.ufo
<glyph name="_15" format="2">
	<unicode hex="010F"/>
	<advance width="400"/>
	<outline>
		<component base="cap"/>
		<component base="cap" yOffset="-250"/>
		<contour>
			<point x="0" y="200" type="line"/>
			<point x="0" y="-50" type="line"/>
			<point x="400" y="-50" type="line"/>
			<point x="400" y="200" type="line"/>
		</contour>
	</outline>
</glyph>
<glyph name="_34" format="2">
	<unicode hex="0122"/>
	<unicode hex="0072"/>
	<advance width="400"/>
	<outline>
		<component base="cap"/>
		<component base="cap" yOffset="-60"/>
		<contour>
			<point x="0" y="200" type="line"/>
			<point x="0" y="140" type="line"/>
			<point x="400" y="140" type="line"/>
			<point x="400" y="200" type="line"/>
		</contour>
	</outline>
</glyph>
<glyph name="_48" format="2">
	<unicode hex="0130"/>
	<unicode hex="0079"/>
	<advance width="400"/>
	<outline>
		<component base="cap"/>
		<component base="cap" yOffset="80"/>
		<contour>
			<point x="0" y="200" type="line"/>
			<point x="0" y="280" type="line"/>
			<point x="400" y="280" type="line"/>
			<point x="400" y="200" type="line"/>
		</contour>
	</outline>
</glyph>
<glyph name="_57" format="2">
	<unicode hex="0139"/>
	<advance width="400"/>
	<outline>
		<component base="cap"/>
		<component base="cap" yOffset="170"/>
		<contour>
			<point x="0" y="200" type="line"/>
			<point x="0" y="370" type="line"/>
			<point x="400" y="370" type="line"/>
			<point x="400" y="200" type="line"/>
		</contour>
	</outline>
</glyph>
<glyph name="_65" format="2">
	<unicode hex="0141"/>
	<advance width="400"/>
	<outline>
		<component base="cap"/>
		<component base="cap" yOffset="250"/>
		<contour>
			<point x="0" y="200" type="line"/>
			<point x="0" y="450" type="line"/>
			<point x="400" y="450" type="line"/>
			<point x="400" y="200" type="line"/>
		</contour>
	</outline>
</glyph>
<glyph name="_70" format="2">
	<unicode hex="0146"/>
	<unicode hex="0037"/>
	<unicode hex="004A"/>
	<advance width="400"/>
	<outline>
		<component base="cap"/>
		<component base="cap" yOffset="300"/>
		<contour>
			<point x="0" y="200" type="line"/>
			<point x="0" y="500" type="line"/>
			<point x="400" y="500" type="line"/>
			<point x="400" y="200" type="line"/>
		</contour>
	</outline>
</glyph>
<glyph name="_76" format="2">
	<unicode hex="014C"/>
	<unicode hex="004D"/>
	<advance width="400"/>
	<outline>
		<component base="cap"/>
		<component base="cap" yOffset="360"/>
		<contour>
			<point x="0" y="200" type="line"/>
			<point x="0" y="560" type="line"/>
			<point x="400" y="560" type="line"/>
			<point x="400" y="200" type="line"/>
		</contour>
	</outline>
</glyph>
<glyph name="_81" format="2">
	<unicode hex="0151"/>
	<advance width="400"/>
	<outline>
		<component base="cap"/>
		<component base="cap" yOffset="410"/>
		<contour>
			<point x="0" y="200" type="line"/>
			<point x="0" y="610" type="line"/>
			<point x="400" y="610" type="line"/>
			<point x="400" y="200" type="line"/>
		</contour>
	</outline>
</glyph>
<glyph name="_82" format="2">
	<unicode hex="0152"/>
	<unicode hex="0050"/>
	<advance width="400"/>
	<outline>
		<component base="cap"/>
		<component base="cap" yOffset="420"/>
		<contour>
			<point x="0" y="200" type="line"/>
			<point x="0" y="620" type="line"/>
			<point x="400" y="620" type="line"/>
			<point x="400" y="200" type="line"/>
		</contour>
	</outline>
</glyph>
<glyph name="_93" format="2">
	<unicode hex="015D"/>
	<advance width="400"/>
	<outline>
		<component base="cap"/>
		<component base="cap" yOffset="530"/>
		<contour>
			<point x="0" y="200" type="line"/>
			<point x="0" y="730" type="line"/>
			<point x="400" y="730" type="line"/>
			<point x="400" y="200" type="line"/>
		</contour>
	</outline>
</glyph>
<glyph name="_99" format="2">
	<unicode hex="0163"/>
	<unicode hex="0059"/>
	<advance width="400"/>
	<outline>
		<component base="cap"/>
		<component base="cap" yOffset="590"/>
		<contour>
			<point x="0" y="200" type="line"/>
			<point x="0" y="790" type="line"/>
			<point x="400" y="790" type="line"/>
			<point x="400" y="200" type="line"/>
		</contour>
	</outline>
</glyph>
<glyph name="_102" format="2">
	<unicode hex="0166"/>
	<advance width="400"/>
	<outline>
		<component base="cap"/>
		<component base="cap" yOffset="620"/>
		<contour>
			<point x="0" y="200" type="line"/>
			<point x="0" y="820" type="line"/>
			<point x="400" y="820" type="line"/>
			<point x="400" y="200" type="line"/>
		</contour>
	</outline>
</glyph>
<glyph name="_2.center" format="2">
	<unicode hex="0402"/>
	<advance width="400"/>
	<outline>
		<component base="cap" yOffset="490"/>
		<component base="cap" yOffset="110"/>
		<contour>
			<point x="0" y="690" type="line"/>
			<point x="0" y="310" type="line"/>
			<point x="400" y="310" type="line"/>
			<point x="400" y="690" type="line"/>
		</contour>
	</outline>
</glyph>
<glyph name="_27.center" format="2">
	<unicode hex="041B"/>
	<advance width="400"/>
	<outline>
		<component base="cap" yOffset="365"/>
		<component base="cap" yOffset="235"/>
		<contour>
			<point x="0" y="565" type="line"/>
			<point x="0" y="435" type="line"/>
			<point x="400" y="435" type="line"/>
			<point x="400" y="565" type="line"/>
		</contour>
	</outline>
</glyph>
<glyph name="_34.center" format="2">
	<unicode hex="0422"/>
	<advance width="400"/>
	<outline>
		<component base="cap" yOffset="330"/>
		<component base="cap" yOffset="270"/>
		<contour>
			<point x="0" y="530" type="line"/>
			<point x="0" y="470" type="line"/>
			<point x="400" y="470" type="line"/>
			<point x="400" y="530" type="line"/>
		</contour>
	</outline>
</glyph>
<glyph name="_47.center" format="2">
	<unicode hex="042F"/>
	<advance width="400"/>
	<outline>
		<component base="cap" yOffset="265"/>
		<component base="cap" yOffset="335"/>
		<contour>
			<point x="0" y="465" type="line"/>
			<point x="0" y="535" type="line"/>
			<point x="400" y="535" type="line"/>
			<point x="400" y="465" type="line"/>
		</contour>
	</outline>
</glyph>
<glyph name="_65.center" format="2">
	<unicode hex="0441"/>
	<advance width="400"/>
	<outline>
		<component base="cap" yOffset="175"/>
		<component base="cap" yOffset="425"/>
		<contour>
			<point x="0" y="375" type="line"/>
			<point x="0" y="625" type="line"/>
			<point x="400" y="625" type="line"/>
			<point x="400" y="375" type="line"/>
		</contour>
	</outline>
</glyph>
<glyph name="_84.center" format="2">
	<unicode hex="0454"/>
	<advance width="400"/>
	<outline>
		<component base="cap" yOffset="80"/>
		<component base="cap" yOffset="520"/>
		<contour>
			<point x="0" y="280" type="line"/>
			<point x="0" y="720" type="line"/>
			<point x="400" y="720" type="line"/>
			<point x="400" y="280" type="line"/>
		</contour>
	</outline>
</glyph>
<glyph name="_91.center" format="2">
	<unicode hex="045B"/>
	<advance width="400"/>
	<outline>
		<component base="cap" yOffset="45"/>
		<component base="cap" yOffset="555"/>
		<contour>
			<point x="0" y="245" type="line"/>
			<point x="0" y="755" type="line"/>
			<point x="400" y="755" type="line"/>
			<point x="400" y="245" type="line"/>
		</contour>
	</outline>
</glyph>
<glyph name="_93.center" format="2">
	<unicode hex="045D"/>
	<advance width="400"/>
	<outline>
		<component base="cap" yOffset="35"/>
		<component base="cap" yOffset="565"/>
		<contour>
			<point x="0" y="235" type="line"/>
			<point x="0" y="765" type="line"/>
			<point x="400" y="765" type="line"/>
			<point x="400" y="235" type="line"/>
		</contour>
	</outline>
</glyph>
<glyph name="_98.center" format="2">
	<unicode hex="0462"/>
	<advance width="400"/>
	<outline>
		<component base="cap" yOffset="10"/>
		<component base="cap" yOffset="590"/>
		<contour>
			<point x="0" y="210" type="line"/>
			<point x="0" y="790" type="line"/>
			<point x="400" y="790" type="line"/>
			<point x="400" y="210" type="line"/>
		</contour>
	</outline>
</glyph>
<glyph name="_101.center" format="2">
	<unicode hex="0465"/>
	<advance width="400"/>
	<outline>
		<component base="cap" yOffset="-5"/>
		<component base="cap" yOffset="605"/>
		<contour>
			<point x="0" y="195" type="line"/>
			<point x="0" y="805" type="line"/>
			<point x="400" y="805" type="line"/>
			<point x="400" y="195" type="line"/>
		</contour>
	</outline>
</glyph>
<glyph name="_104.center" format="2">
	<unicode hex="0468"/>
	<advance width="400"/>
	<outline>
		<component base="cap" yOffset="-20"/>
		<component base="cap" yOffset="620"/>
		<contour>
			<point x="0" y="180" type="line"/>
			<point x="0" y="820" type="line"/>
			<point x="400" y="820" type="line"/>
			<point x="400" y="180" type="line"/>
		</contour>
	</outline>
</glyph>
<glyph name="_25.clip.center" format="2">
	<advance width="400"/>
	<outline>
		<contour>
			<point x="0" y="568.75"/>
			<point x="56.25" y="625"/>
			<point x="125" y="625" type="curve" smooth="yes"/>
			<point x="275" y="625" type="line"/>
			<point x="343.75" y="625"/>
			<point x="400" y="568.75"/>
			<point x="400" y="500" type="curve" smooth="yes"/>
			<point x="400" y="500" type="line"/>
			<point x="400" y="431.25"/>
			<point x="343.75" y="375"/>
			<point x="275" y="375" type="curve" smooth="yes"/>
			<point x="125" y="375" type="line"/>
			<point x="56.25" y="375"/>
			<point x="0" y="431.25"/>
			<point x="0" y="500" type="curve" smooth="yes"/>
			<point x="0" y="500" type="line"/>
		</contour>
	</outline>
</glyph>
<glyph name="_33.clip.center" format="2">
	<advance width="400"/>
	<outline>
		<contour>
			<point x="0" y="590.75"/>
			<point x="74.25" y="665"/>
			<point x="165" y="665" type="curve" smooth="yes"/>
			<point x="235" y="665" type="line"/>
			<point x="325.75" y="665"/>
			<point x="400" y="590.75"/>
			<point x="400" y="500" type="curve" smooth="yes"/>
			<point x="400" y="500" type="line"/>
			<point x="400" y="409.25"/>
			<point x="325.75" y="335"/>
			<point x="235" y="335" type="curve" smooth="yes"/>
			<point x="165" y="335" type="line"/>
			<point x="74.25" y="335"/>
			<point x="0" y="409.25"/>
			<point x="0" y="500" type="curve" smooth="yes"/>
			<point x="0" y="500" type="line"/>
		</contour>
	</outline>
</glyph>
<glyph name="_8.clip.center" format="2">
	<advance width="400"/>
	<outline>
		<contour>
			<point x="0" y="522"/>
			<point x="18" y="540"/>
			<point x="40" y="540" type="curve" smooth="yes"/>
			<point x="360" y="540" type="line"/>
			<point x="382" y="540"/>
			<point x="400" y="522"/>
			<point x="400" y="500" type="curve" smooth="yes"/>
			<point x="400" y="500" type="line"/>
			<point x="400" y="478"/>
			<point x="382" y="460"/>
			<point x="360" y="460" type="curve" smooth="yes"/>
			<point x="40" y="460" type="line"/>
			<point x="18" y="460"/>
			<point x="0" y="478"/>
			<point x="0" y="500" type="curve" smooth="yes"/>
			<point x="0" y="500" type="line"/>
		</contour>
	</outline>
</glyph>
